<?xml version="1.0" standalone="no"?>
<!DOCTYPE svg PUBLIC "-//W3C//DTD SVG 20010904//EN"
 "http://www.w3.org/TR/2001/REC-SVG-20010904/DTD/svg10.dtd">
<svg version="1.0" xmlns="http://www.w3.org/2000/svg"
 width="768.000000pt" height="480.000000pt" viewBox="0 0 768.000000 480.000000"
 preserveAspectRatio="xMidYMid meet">
<metadata>
Created by potrace 1.16, written by Peter Selinger 2001-2019
</metadata>
<g transform="translate(0.000000,480.000000) scale(0.100000,-0.100000)"
fill="#000000" stroke="none">
<path d="M0 4639 c0 -146 1 -159 16 -145 20 21 41 20 53 -2 5 -10 9 -84 9
-165 0 -81 2 -151 6 -154 7 -7 11 117 8 270 -2 96 0 112 18 138 12 16 28 29
36 29 8 0 14 5 14 11 0 5 5 7 10 4 6 -4 10 -12 9 -18 -2 -7 3 -24 10 -38 10
-20 10 -32 2 -47 -6 -11 -11 -32 -11 -45 0 -14 -7 -43 -15 -66 -14 -40 -13
-41 5 -31 24 13 87 13 95 0 3 -5 19 -10 35 -10 24 0 31 5 36 28 18 76 60 112
100 87 11 -7 32 -11 46 -8 21 4 29 -2 47 -30 11 -19 21 -50 21 -68 1 -59 22
-6 24 62 3 64 13 83 42 77 24 -4 31 -46 10 -54 -28 -11 -18 -134 10 -134 24 0
15 -30 -26 -87 -22 -31 -40 -63 -40 -71 0 -8 -12 -41 -26 -73 l-26 -58 16 -88
c18 -97 23 -487 7 -497 -18 -11 -41 6 -41 31 0 20 -4 23 -20 19 -11 -3 -30 -9
-42 -12 -13 -3 -31 -16 -40 -28 -21 -26 -43 -16 -72 34 -17 28 -19 52 -19 202
1 157 3 173 22 199 31 42 29 139 -4 201 -20 38 -25 61 -25 121 0 82 -8 95 -54
95 -19 0 -30 -6 -33 -19 -6 -22 -14 -24 -31 -7 -9 9 -12 -5 -12 -63 0 -43 -5
-80 -12 -87 -8 -8 -8 -15 1 -26 8 -9 11 -45 9 -106 -2 -76 -6 -95 -20 -104
-26 -16 -52 4 -58 45 -4 27 -7 30 -13 16 -4 -10 -7 -27 -7 -37 0 -29 -28 -46
-51 -32 -19 12 -19 0 -19 -668 0 -661 1 -681 20 -717 11 -21 20 -48 20 -60 0
-16 -6 -23 -20 -23 -20 0 -20 -7 -20 -1041 0 -968 1 -1040 17 -1028 9 8 17 13
17 11 1 -2 9 0 20 4 10 4 21 2 25 -5 11 -17 51 25 51 53 0 13 8 30 17 37 10 8
14 9 10 2 -4 -6 -3 -15 3 -18 7 -4 7 -11 2 -18 -11 -15 -23 -47 -17 -47 2 0
12 14 20 30 14 28 17 29 32 15 12 -13 13 -21 5 -41 -15 -31 -5 -31 20 2 14 18
23 22 28 14 5 -8 10 -2 14 14 3 14 11 26 16 26 13 0 13 -6 -5 -40 -9 -17 -12
-30 -7 -30 5 0 16 15 25 33 l17 32 -2 -35 c-2 -61 1 -77 11 -61 11 17 51 22
51 7 0 -6 4 -5 9 2 7 11 9 11 14 -2 5 -12 12 -14 31 -6 17 6 26 5 29 -3 3 -9
9 -9 26 1 19 11 21 10 21 -8 0 -11 6 -20 14 -20 8 0 17 -6 19 -12 3 -7 6 -3 6
8 1 27 31 56 31 30 0 -24 19 -19 32 9 11 24 11 24 28 5 24 -27 39 -25 46 8 12
54 16 62 25 56 5 -3 7 -10 4 -15 -4 -5 1 -10 9 -11 9 0 21 -1 27 -2 6 -1 13
13 14 29 1 17 11 45 23 63 11 19 18 41 15 50 -2 9 3 26 12 37 15 19 16 17 9
-25 -3 -25 -10 -49 -15 -54 -4 -5 -4 -17 2 -28 5 -10 7 -23 4 -28 -3 -5 -1
-11 5 -15 5 -3 10 -2 10 3 0 6 7 9 16 8 9 0 19 5 21 12 3 7 -1 10 -11 6 -25
-10 -19 10 7 21 12 6 22 19 22 30 0 23 12 45 25 45 4 0 7 -13 6 -30 -4 -62 17
-23 26 47 1 7 5 10 10 7 5 -4 7 -12 4 -20 -3 -8 0 -11 10 -7 7 3 14 1 14 -4 0
-5 8 -9 18 -8 35 2 54 22 62 66 9 47 5 62 -11 39 -7 -11 -8 -6 -3 15 4 17 13
36 20 44 11 13 15 11 22 -9 6 -17 11 -20 17 -11 6 11 9 11 15 0 5 -8 12 3 20
32 20 74 30 95 40 80 9 -16 30 -6 30 15 0 8 5 14 11 14 6 0 8 -9 4 -22 -4 -16
-3 -19 3 -9 7 9 11 10 13 2 3 -7 5 6 5 29 2 47 11 61 25 40 9 -12 10 -12 5 3
-3 9 -9 24 -12 32 -3 8 -2 15 4 15 6 0 13 -6 15 -12 4 -10 6 -10 6 0 1 6 6 12
11 12 6 0 8 -12 5 -27 -6 -26 -5 -26 15 7 l21 35 -4 -30 c-2 -16 -8 -38 -12
-47 -5 -13 -3 -18 9 -18 9 0 16 -6 16 -14 0 -7 9 -16 20 -19 17 -4 19 -1 15
29 -2 21 0 32 5 29 6 -4 10 -2 10 4 0 5 -5 11 -12 13 -17 6 23 57 45 58 10 0
20 8 24 18 3 9 14 29 24 43 10 14 16 29 12 33 -3 3 0 17 7 31 12 22 12 30 -3
54 -18 31 -22 52 -9 50 18 -3 32 2 32 11 0 5 -7 7 -15 4 -10 -4 -15 0 -15 11
0 10 5 13 12 9 7 -5 9 0 6 14 -4 16 -2 19 11 15 14 -4 14 -3 -1 10 -10 8 -18
19 -18 25 0 6 -5 12 -11 14 -6 2 -2 14 10 29 13 16 18 34 14 48 -3 12 1 29 9
39 8 9 18 26 22 37 5 15 9 16 15 6 16 -25 30 45 20 97 -4 19 -3 32 3 32 6 0 8
12 5 30 -4 20 -1 34 10 46 12 12 17 39 19 112 2 53 0 99 -4 102 -4 3 -12 18
-17 34 -14 42 -33 44 -37 4 -2 -26 -8 -34 -27 -36 -21 -3 -23 -1 -19 23 3 15
-1 40 -9 56 -11 22 -12 33 -3 50 15 26 5 69 -16 69 -12 0 -14 7 -9 32 4 23 3
29 -4 19 -7 -11 -10 -8 -13 15 -2 16 -8 28 -14 27 -7 -1 -10 6 -7 20 4 21 4
22 -11 3 -9 -11 -16 -16 -16 -10 0 5 -4 3 -9 -5 -8 -12 -13 -12 -37 3 -25 17
-28 17 -36 2 -14 -24 -31 -20 -18 5 7 11 9 23 6 27 -3 3 1 16 9 28 8 13 17 36
18 51 2 16 9 39 16 51 7 13 10 26 8 29 -3 2 -8 -5 -12 -16 -11 -35 -24 -24
-19 17 4 34 3 36 -11 18 -8 -11 -15 -27 -15 -36 0 -9 -7 -25 -16 -36 -14 -18
-15 -18 -8 6 4 14 9 31 11 38 3 6 -2 12 -11 12 -12 0 -16 10 -16 36 0 19 -5
44 -11 56 -6 11 -11 56 -12 100 0 59 -3 77 -11 67 -6 -8 -23 -15 -38 -15 -23
-2 -27 3 -33 42 -8 56 3 112 24 124 16 8 34 63 46 145 4 22 13 63 20 90 7 28
16 67 20 89 5 33 4 38 -9 33 -13 -5 -15 -1 -10 21 4 15 11 38 16 52 8 20 58
263 58 278 0 3 -10 -8 -22 -23 -20 -26 -22 -26 -29 -9 -6 17 -8 15 -14 -8 -4
-16 -11 -28 -15 -28 -5 0 -4 15 1 32 14 50 12 63 -6 48 -12 -10 -15 -10 -15 1
0 8 -11 15 -24 15 -19 1 -23 -2 -18 -15 5 -14 4 -14 -9 -1 -9 9 -18 22 -21 30
-4 11 -8 8 -16 -10 -9 -21 -11 -22 -11 -6 -1 30 -16 7 -31 -47 -15 -56 -32
-73 -20 -20 12 51 -3 75 -20 34 -16 -38 -30 -49 -24 -19 l5 23 -12 -22 c-7
-13 -18 -23 -24 -23 -17 0 -44 -43 -52 -81 -6 -33 -30 -50 -43 -30 -5 9 -10 5
-15 -11 -6 -19 -8 -20 -12 -5 -6 23 -19 22 -38 -5 -17 -23 -17 -23 -13 10 3
18 1 35 -4 38 -4 3 -8 0 -8 -5 0 -23 -19 -9 -25 18 -9 40 -31 30 -46 -20 -7
-21 -16 -39 -21 -39 -11 0 -11 1 18 64 19 42 24 66 20 90 -5 23 -2 37 9 46 18
15 20 35 3 24 -8 -5 -9 -2 -3 12 17 43 18 114 1 133 -14 16 -15 21 -2 45 12
25 15 26 24 11 8 -15 10 -14 16 11 4 15 15 33 24 40 14 10 14 14 3 28 -10 12
-17 14 -27 5 -9 -8 -14 -8 -14 -1 0 6 -9 13 -19 17 -11 3 -22 17 -24 33 -4 27
-4 27 -12 4 -4 -14 -14 -22 -24 -20 -22 4 -21 34 2 30 11 -2 17 4 17 17 0 11
-4 21 -9 23 -4 2 -11 12 -15 24 -5 15 0 24 20 34 20 11 27 11 33 2 4 -7 15
-10 24 -7 12 5 14 2 10 -14 -3 -12 -9 -24 -14 -27 -15 -9 -10 -27 5 -21 8 3
17 1 19 -6 2 -7 4 6 3 27 -1 43 13 55 36 32 12 -11 18 -12 27 -3 8 8 11 8 11
-1 0 -16 27 -15 33 1 3 6 6 -3 6 -21 1 -18 -4 -42 -10 -53 -5 -11 -8 -28 -6
-37 3 -13 7 -11 15 11 6 15 14 27 17 27 6 0 -3 -88 -10 -100 -3 -4 1 -13 9
-19 11 -9 16 -6 24 18 6 16 8 38 5 49 -6 23 24 85 36 77 5 -3 14 9 20 27 15
41 23 31 11 -12 -12 -41 -1 -56 29 -41 12 7 25 29 31 54 6 23 15 52 20 65 13
31 13 37 -3 24 -10 -8 -12 -2 -10 31 l3 42 -18 -44 c-11 -24 -26 -45 -35 -47
-14 -2 -15 5 -10 44 3 26 11 50 17 54 8 5 7 8 -1 8 -9 0 -13 19 -14 58 l-1 57
-17 -65 c-10 -36 -20 -72 -24 -80 -7 -17 -1 68 8 115 5 27 4 26 -8 -6 -14 -37
-57 -88 -57 -67 0 6 7 19 15 28 11 12 12 24 6 45 -5 17 -10 24 -10 18 -1 -7
-5 -13 -10 -13 -5 0 -5 16 0 38 11 50 11 52 -5 52 -8 0 -17 -13 -21 -30 -4
-16 -10 -30 -15 -30 -10 0 4 56 18 73 12 15 74 268 68 275 -7 6 -23 -36 -31
-82 -4 -20 -11 -39 -16 -42 -11 -7 -11 -4 1 32 5 16 14 48 20 72 6 23 15 40
19 37 5 -2 9 5 9 18 0 12 12 57 26 101 26 76 29 115 5 63 -11 -25 -49 -44 -49
-25 0 5 -5 6 -12 2 -8 -5 -9 3 -5 29 5 34 4 37 -18 37 -25 0 -38 -20 -29 -47
4 -14 3 -15 -4 -5 -7 10 -15 3 -31 -30 -24 -49 -29 -29 -6 25 8 20 15 41 15
47 0 7 -144 10 -440 10 l-440 0 0 -161z m354 98 c56 -14 77 -37 57 -61 -8 -9
-28 -16 -45 -16 -18 0 -58 -7 -89 -15 -32 -8 -60 -15 -62 -15 -16 0 -1 63 21
89 28 34 41 36 118 18z m83 -1330 c7 -5 15 -40 19 -78 5 -48 11 -69 20 -69 10
0 14 -14 14 -45 0 -42 2 -45 28 -45 32 0 74 -20 80 -37 2 -9 -10 -13 -40 -13
-39 0 -45 -3 -62 -34 -10 -18 -17 -46 -16 -62 3 -49 0 -58 -25 -77 -20 -14
-28 -15 -49 -5 -21 9 -29 8 -44 -5 -11 -11 -39 -17 -75 -18 -45 -2 -60 -6 -68
-21 -5 -10 -20 -18 -32 -18 -13 0 -28 -5 -34 -11 -14 -14 -5 -68 14 -87 7 -7
13 -19 13 -25 -1 -29 -18 -37 -81 -35 -71 1 -82 4 -73 20 4 6 8 115 8 241 1
165 5 232 13 234 14 5 30 -23 37 -63 6 -42 6 -41 17 -14 l10 25 24 -29 24 -30
6 27 c7 25 8 26 31 10 14 -9 27 -14 29 -12 2 3 10 32 18 64 8 33 15 50 16 37
1 -12 10 -41 22 -63 16 -32 23 -38 33 -29 24 19 44 153 27 174 -7 8 -8 17 -3
20 5 3 12 24 16 47 6 38 8 40 39 38 17 -2 37 -7 44 -12z m502 -494 c2 25 21
21 21 -4 0 -17 3 -19 14 -10 29 24 34 -53 12 -177 -7 -40 -11 -83 -9 -96 7
-33 -26 -51 -53 -31 -11 8 -22 15 -26 15 -5 0 -8 -38 -8 -85 0 -50 -5 -95 -12
-108 -7 -12 -14 -23 -15 -25 -3 -7 -43 38 -43 48 0 6 -8 10 -17 8 -16 -3 -18
4 -15 46 3 45 2 48 -18 43 -23 -6 -21 -24 -22 188 0 84 22 194 30 145 2 -14 8
-29 13 -34 9 -10 13 -2 23 47 4 17 12 27 21 25 8 -2 21 6 29 17 14 20 15 20
24 -5 l10 -25 13 30 12 30 7 -30 c4 -16 8 -22 9 -12z m189 -590 c2 -16 -2 -23
-12 -23 -9 0 -16 -4 -16 -8 0 -5 -18 -16 -40 -25 -48 -18 -84 -11 -123 25 -51
48 -35 57 98 55 85 -2 90 -3 93 -24z"/>
<path d="M3945 4778 c-4 -13 -7 -27 -6 -32 1 -4 -3 -14 -10 -22 -6 -7 -7 -19
-3 -25 4 -8 3 -9 -4 -5 -11 6 -15 -4 -25 -59 -2 -11 -8 -19 -14 -18 -17 3 -24
-37 -7 -44 8 -3 11 -9 8 -14 -3 -5 -9 -7 -14 -4 -4 3 -15 -11 -24 -30 -9 -19
-19 -35 -22 -35 -2 0 -2 20 2 45 3 27 2 45 -4 45 -13 0 -23 -27 -16 -45 4 -10
0 -15 -12 -16 -11 0 -14 -3 -6 -6 17 -7 15 -19 -7 -51 -10 -15 -26 -39 -35
-54 -14 -24 -20 -26 -41 -18 -19 7 -25 6 -25 -4 0 -8 5 -16 12 -18 7 -3 8 -10
4 -17 -7 -10 -10 -11 -16 -1 -5 8 -13 -5 -22 -36 -8 -27 -19 -48 -24 -47 -6 1
-16 -15 -24 -35 -11 -32 -14 -34 -20 -17 -7 19 -8 19 -18 -5 l-11 -25 0 28
c-1 30 -18 33 -32 6 -8 -16 -38 -140 -44 -184 -11 -79 -18 -101 -35 -117 -10
-9 -25 -51 -35 -95 -23 -106 -43 -172 -45 -148 -4 37 1 70 22 137 14 47 17 72
10 84 -8 14 -13 6 -26 -42 -23 -82 -45 -131 -72 -157 -12 -13 -32 -47 -43 -77
-23 -60 -20 -82 4 -29 l15 34 -5 -40 c-8 -74 -25 -107 -38 -72 -2 6 -8 -6 -12
-28 -4 -22 -16 -63 -25 -91 -10 -28 -16 -62 -14 -75 3 -13 -2 -53 -9 -89 -10
-43 -11 -71 -5 -83 9 -18 11 -18 29 -1 18 17 19 16 19 -20 0 -22 4 -35 10 -31
6 4 10 -6 10 -22 0 -16 5 -34 11 -40 8 -8 5 -17 -11 -33 -20 -20 -21 -24 -6
-32 9 -5 16 -19 16 -30 0 -21 0 -21 15 -2 15 18 15 17 9 -16 -4 -19 -8 -44 -9
-56 -1 -11 -5 -26 -9 -33 -5 -8 -1 -14 13 -18 12 -3 21 -12 21 -19 0 -8 10
-19 23 -24 12 -5 16 -9 9 -9 -7 -1 -10 -6 -6 -13 4 -7 3 -8 -4 -4 -19 11 -52
-13 -52 -37 1 -20 3 -19 17 8 9 17 18 25 21 17 2 -6 9 -9 15 -5 7 4 8 0 4 -11
-4 -10 -7 -19 -7 -22 0 -2 -7 -1 -16 3 -12 4 -15 2 -12 -8 3 -8 14 -13 24 -11
18 2 18 2 1 -9 -18 -10 -18 -11 0 -24 10 -7 21 -11 25 -9 12 8 9 -51 -3 -63
-7 -7 -7 -13 0 -17 5 -4 8 -13 4 -21 -3 -8 0 -15 6 -15 6 0 11 -5 11 -11 0 -5
-4 -8 -9 -5 -5 3 -11 -3 -14 -14 -3 -10 0 -21 7 -23 7 -3 4 -11 -8 -25 -10
-12 -16 -28 -13 -37 4 -8 2 -15 -4 -15 -6 0 -7 -5 -3 -11 4 -8 9 -7 15 2 8 12
10 12 18 0 5 -7 14 -10 20 -7 6 4 11 0 11 -8 0 -20 14 -20 32 -2 10 10 19 11
32 4 9 -5 24 -7 32 -4 9 3 12 1 9 -4 -3 -6 -1 -10 5 -10 7 0 10 -7 7 -14 -4
-10 -1 -13 9 -9 7 3 14 9 14 15 0 5 4 7 9 3 6 -3 14 14 19 37 l10 43 1 -43 c1
-28 6 -45 16 -48 13 -5 13 -9 3 -22 -12 -14 -11 -14 9 -1 34 21 52 -2 24 -30
-25 -25 -35 -27 -27 -5 4 11 0 15 -16 12 -16 -2 -26 -14 -35 -43 l-13 -40 4
38 c7 55 -1 70 -27 55 -12 -7 -30 -11 -39 -9 -16 2 -23 -10 -19 -33 1 -5 -6
-5 -16 -1 -10 4 -28 10 -40 12 -12 3 -32 21 -43 40 -21 35 -21 35 -42 17 -12
-11 -18 -13 -14 -6 4 7 2 12 -4 12 -7 0 -9 -7 -6 -16 4 -9 2 -22 -2 -28 -5 -6
-14 -24 -20 -41 -9 -26 -11 -27 -11 -7 -1 28 -21 30 -21 1 0 -13 -4 -18 -12
-13 -6 4 -8 3 -4 -4 7 -12 -13 -62 -26 -62 -4 0 -8 8 -9 18 0 12 -2 13 -6 3
-3 -8 0 -19 8 -25 22 -18 21 -74 -3 -81 -10 -4 -25 -1 -33 5 -12 10 -15 10
-15 1 0 -7 -5 -9 -10 -6 -6 4 -8 16 -4 28 6 20 5 21 -11 7 -12 -10 -16 -10
-11 -2 4 7 4 18 -2 25 -14 18 -87 247 -122 382 -17 66 -44 157 -60 203 -16 45
-25 82 -20 82 5 0 11 -9 15 -19 3 -11 15 -31 26 -45 11 -15 34 -52 51 -83 28
-53 32 -73 26 -148 -3 -24 1 -30 17 -30 15 0 27 -16 47 -62 27 -66 31 -121 10
-159 -9 -16 -8 -25 4 -42 22 -31 31 -28 64 24 38 61 53 132 56 279 2 66 4 134
5 150 4 57 -10 157 -24 179 -8 12 -20 49 -27 81 -6 33 -18 65 -27 72 -8 6 -21
37 -30 70 -22 84 -30 96 -62 90 -22 -5 -30 0 -48 28 -27 41 -53 102 -53 124 0
10 -22 46 -50 82 -27 35 -50 69 -50 74 0 6 9 16 20 23 11 7 20 17 20 24 0 7
-6 3 -14 -8 -14 -18 -15 -18 -14 6 1 14 10 37 20 52 19 27 19 29 1 58 -14 25
-15 32 -5 39 22 14 -10 74 -52 99 -21 12 -34 17 -30 10 5 -8 2 -9 -10 -5 -14
5 -17 2 -14 -15 2 -17 -4 -24 -32 -34 -95 -32 -93 -32 -127 -6 -18 13 -33 30
-33 37 0 6 -16 28 -35 48 -19 20 -35 30 -35 23 0 -7 9 -21 20 -31 11 -10 20
-27 20 -37 0 -10 19 -39 43 -63 41 -41 43 -44 27 -65 -18 -24 -38 -20 -64 15
-10 14 -25 25 -32 25 -8 0 -14 5 -14 10 0 6 -13 18 -29 28 -23 14 -27 21 -20
39 6 18 5 21 -8 16 -11 -4 -7 6 11 35 16 27 21 39 11 36 -8 -3 -17 -14 -20
-25 -4 -10 -10 -19 -15 -19 -5 0 -12 -9 -15 -21 -4 -11 -9 -18 -12 -16 -2 3 5
24 16 48 25 51 26 55 6 39 -9 -8 -15 -8 -15 -2 0 6 17 24 37 41 21 17 34 31
30 31 -4 0 -28 -19 -53 -42 -34 -31 -48 -38 -56 -30 -7 7 -20 12 -30 12 -10 0
-18 5 -18 10 0 6 -7 10 -15 10 -8 0 -15 9 -15 21 0 11 -4 18 -9 15 -5 -3 -9
-27 -9 -53 0 -68 -1 -73 -13 -73 -8 0 -7 6 2 16 12 15 11 16 -11 9 -14 -4 -28
-13 -32 -19 -5 -8 -8 -7 -8 2 0 7 -5 10 -12 6 -8 -5 -9 2 -3 27 9 42 13 68 14
93 1 14 6 17 22 13 12 -3 33 -1 47 4 14 5 33 7 41 4 14 -6 14 -8 -2 -16 -24
-14 -11 -32 14 -19 23 13 43 4 35 -15 -11 -30 27 -24 67 10 50 43 70 46 61 9
-6 -25 -6 -26 17 -13 23 12 23 11 9 -6 -14 -17 -14 -18 8 -6 13 7 35 10 49 6
24 -6 24 -5 9 10 -9 9 -27 20 -41 23 -17 5 -22 11 -16 21 7 11 16 8 46 -12 40
-27 65 -26 65 3 0 25 21 81 28 76 4 -2 8 21 9 51 2 42 8 59 24 72 18 14 20 21
10 39 -6 11 -11 34 -11 51 0 44 -17 80 -61 133 -37 45 -39 50 -38 115 0 37 4
91 9 118 4 28 6 52 4 54 -2 2 -24 -38 -49 -90 -25 -52 -43 -83 -40 -69 6 24 6
25 -10 5 -9 -11 -14 -28 -12 -37 3 -9 -3 -30 -13 -46 -10 -17 -16 -33 -13 -36
4 -3 1 -6 -5 -6 -6 0 -14 5 -17 10 -3 6 -12 10 -18 10 -7 0 -2 -8 11 -18 13
-10 20 -21 16 -25 -26 -26 -76 21 -53 49 9 11 9 18 1 26 -8 8 -21 5 -47 -13
-43 -28 -78 -96 -89 -172 -1 -9 -5 -20 -9 -23 -11 -12 -8 -26 4 -18 8 4 9 0 4
-15 -6 -21 1 -26 33 -22 6 1 12 -3 12 -9 0 -5 -4 -10 -10 -10 -5 0 -10 -7 -10
-16 0 -17 -23 -44 -37 -44 -5 0 -15 -10 -23 -22 -40 -58 -81 -96 -104 -94 -19
1 -22 4 -14 14 6 7 9 14 7 16 -2 2 -35 -25 -74 -60 -43 -39 -62 -61 -48 -58
12 3 29 15 39 25 9 10 25 19 35 19 10 0 21 5 24 10 3 6 17 10 31 10 21 0 24
-3 19 -21 -5 -16 -3 -20 6 -17 8 3 13 12 13 21 -1 9 5 18 12 21 18 7 18 -15
-1 -50 -8 -16 -15 -37 -15 -46 0 -10 -4 -18 -8 -18 -5 0 -6 14 -4 31 3 22 1
30 -7 25 -6 -4 -11 -22 -11 -41 0 -43 -13 -52 -30 -20 -7 13 -19 26 -27 29 -8
3 -11 1 -8 -4 3 -6 -4 -11 -17 -12 -13 0 -27 -2 -33 -2 -5 -1 -22 -14 -37 -29
-15 -15 -31 -27 -36 -27 -5 0 -12 -13 -16 -30 -3 -19 -12 -30 -22 -30 -11 0
-14 5 -10 16 4 10 1 14 -6 11 -8 -2 -12 -19 -12 -40 2 -37 -9 -49 -20 -24 -4
6 -4 -2 -2 -19 5 -30 -8 -54 -28 -54 -6 0 -5 5 2 12 14 14 16 54 4 62 -5 3
-19 -13 -31 -34 -12 -22 -26 -40 -30 -40 -4 0 -12 -20 -19 -46 -7 -25 -17 -42
-22 -39 -6 4 -7 12 -3 18 3 7 -2 5 -13 -4 -30 -25 -57 -32 -50 -14 3 9 2 14
-3 10 -14 -8 -103 -285 -104 -322 -1 -32 -17 -37 -17 -5 -1 26 -20 -11 -40
-78 l-17 -55 -18 35 c-18 33 -20 34 -23 11 -2 -13 4 -44 13 -68 12 -30 14 -48
7 -55 -7 -7 -12 -3 -17 11 -3 12 -10 21 -15 21 -11 0 -2 -52 16 -99 8 -18 14
-37 14 -42 0 -17 -17 -9 -28 14 -20 42 -14 -36 7 -85 16 -37 17 -53 9 -108
-10 -65 -13 -108 -9 -145 2 -11 0 -58 -2 -105 -4 -57 -1 -95 8 -115 12 -31 56
-66 84 -70 9 -1 24 -5 34 -9 10 -5 23 -4 31 3 11 9 19 -14 47 -126 18 -76 57
-208 87 -293 64 -181 69 -216 47 -295 -9 -33 -21 -87 -25 -120 -8 -59 -14 -72
-155 -343 l-38 -73 0 -132 c1 -73 6 -152 13 -176 12 -44 8 -219 -5 -254 -4 -9
-2 -24 5 -32 6 -8 8 -20 4 -26 -11 -19 -16 -191 -6 -198 9 -5 17 -76 13 -107
-1 -12 0 -12 -371 11 -129 8 -278 17 -330 20 -52 4 -142 11 -200 17 -58 6
-142 12 -187 14 -45 1 -97 7 -115 12 -18 5 -42 7 -53 6 -11 -2 -27 -1 -35 2
-8 3 -48 7 -89 9 -40 2 -76 6 -79 9 -5 6 54 10 97 6 16 -1 21 2 16 10 -4 7
-22 10 -41 8 -23 -3 -34 0 -34 9 0 7 7 10 17 6 10 -4 14 -2 10 4 -6 10 13 9
51 -2 17 -6 21 -13 17 -29 -2 -11 -2 -16 1 -9 3 7 12 9 20 6 8 -3 14 -1 14 5
0 5 -7 12 -15 16 -23 8 -18 28 5 21 11 -3 20 -2 20 3 0 5 -36 10 -80 11 -51 1
-80 -2 -80 -8 0 -6 -5 -11 -11 -11 -6 0 -9 6 -6 14 4 10 -2 17 -16 20 -12 2
13 4 56 3 42 -2 77 1 77 5 0 5 -6 8 -12 8 -7 0 -59 3 -115 7 l-103 6 0 -142 0
-141 335 0 c308 0 335 1 344 18 9 15 10 15 11 1 0 -15 26 -17 255 -18 198 -1
255 2 255 11 0 9 3 9 8 2 10 -15 217 -20 208 -5 -4 6 -2 11 3 11 6 0 11 -4 11
-8 0 -13 33 -11 49 2 11 8 13 8 8 -1 -6 -9 32 -12 157 -12 91 0 168 4 171 9 3
4 14 6 25 3 12 -3 20 0 20 7 0 7 -6 10 -14 7 -8 -3 -17 1 -20 9 -9 24 -8 26
13 19 11 -3 23 -1 26 6 6 8 10 7 16 -2 7 -11 9 -9 9 6 0 15 2 17 9 6 5 -7 14
-10 20 -7 6 4 9 12 5 17 -3 5 0 18 7 27 11 14 11 15 0 5 -11 -9 -17 -9 -27 2
-8 7 -19 15 -25 17 -9 3 -9 9 -1 25 15 28 16 86 3 158 -26 143 -28 163 -20
230 13 103 18 124 46 185 14 30 29 66 34 80 17 55 57 141 73 159 10 11 20 38
23 61 l6 42 69 -130 c62 -118 67 -133 57 -156 -11 -22 -9 -28 9 -45 12 -10 22
-29 22 -42 0 -18 8 -28 33 -38 17 -7 26 -15 20 -18 -23 -9 -13 -23 16 -23 22
0 34 -9 55 -40 14 -22 26 -43 26 -47 0 -5 -5 -1 -10 7 -8 13 -10 12 -10 -2 0
-10 4 -18 9 -18 5 0 11 -11 14 -26 3 -20 -5 -35 -47 -76 -28 -28 -43 -45 -33
-38 14 11 17 10 17 -7 0 -20 33 -26 58 -10 7 5 12 3 12 -6 0 -8 6 -20 14 -26
11 -10 17 -8 25 6 8 14 11 15 11 3 0 -12 3 -11 11 3 15 26 26 21 40 -18 12
-32 39 -49 39 -25 0 6 5 10 11 10 6 0 9 -7 5 -15 -3 -8 0 -14 7 -12 7 1 11 -4
9 -11 -1 -8 1 -11 5 -9 5 3 29 -15 53 -40 25 -25 64 -58 88 -74 43 -31 49 -46
43 -121 l-2 -28 2480 0 2481 0 -2 828 c-1 455 -3 810 -5 790 -4 -40 -8 -42
-103 -51 -28 -3 -26 -4 13 -5 51 -2 59 -15 34 -59 -12 -22 -139 -113 -157
-113 -16 0 -11 -14 15 -43 20 -21 24 -31 16 -45 -10 -16 -10 -16 -11 0 0 23
-27 12 -36 -14 -7 -22 -20 -14 -26 17 -2 16 -14 21 -53 26 -61 7 -90 -2 -100
-33 -7 -19 -9 -16 -12 22 -3 30 -11 50 -24 60 -26 20 -51 114 -39 146 9 23 14
24 112 26 57 1 114 3 128 4 14 1 40 3 59 3 19 1 32 3 29 6 -3 3 -77 8 -164 11
-87 3 -160 7 -162 9 -6 6 -12 54 -13 118 -1 55 -5 70 -22 82 -14 10 -18 21
-15 40 4 21 0 29 -23 40 -15 8 -30 11 -33 6 -3 -5 -58 -7 -121 -5 l-114 4 1
-28 c2 -44 -21 -174 -33 -189 -15 -18 -153 -9 -185 12 -41 27 -56 67 -42 118
6 25 8 52 3 63 -7 17 -8 17 -14 -6 -5 -18 -15 -26 -35 -28 -46 -6 -94 7 -116
30 l-20 22 0 -71 c0 -45 -5 -74 -13 -81 -7 -6 -37 -11 -68 -11 -30 0 -59 -1
-64 -2 -6 -1 -17 1 -26 5 -9 4 -34 3 -57 -3 -28 -6 -44 -5 -48 1 -5 7 -36 8
-93 3 -47 -5 -118 -9 -158 -10 -40 -1 -78 -7 -86 -13 -8 -7 -17 -9 -20 -6 -3
3 -11 -14 -18 -37 -11 -40 -13 -42 -19 -19 l-6 25 -15 -30 c-8 -16 -21 -30
-29 -30 -8 0 -24 -8 -35 -18 -19 -17 -20 -17 -32 8 -8 14 -18 25 -23 25 -6 0
-10 9 -10 21 0 11 -4 18 -9 15 -4 -3 -6 6 -3 19 4 25 -11 35 -23 15 -4 -6 -11
-8 -16 -5 -5 4 -12 -2 -16 -12 -6 -16 -8 -15 -13 6 -4 16 -13 25 -27 26 -19 1
-23 -5 -28 -44 -12 -87 -14 -89 -98 -89 -41 0 -125 -3 -185 -7 -134 -8 -182 4
-182 45 0 19 -5 26 -20 26 -19 0 -22 -4 -24 -36 -1 -10 -12 -15 -36 -16 -61
-1 -63 2 -56 72 5 52 4 64 -10 72 -17 9 -17 17 -10 242 2 76 12 150 21 150 1
0 18 -6 36 -14 22 -9 41 -11 56 -5 13 5 24 5 24 1 1 -4 4 7 8 23 7 30 -6 55
-28 55 -12 0 -15 52 -4 63 3 4 13 2 20 -5 11 -9 16 -9 23 2 11 17 41 22 57 8
7 -5 19 -8 27 -5 7 3 19 0 25 -6 8 -8 15 -6 29 6 16 15 21 15 46 1 16 -8 31
-12 34 -9 3 3 11 0 19 -6 7 -6 13 -8 13 -4 0 5 9 0 20 -10 19 -17 20 -17 31 9
11 23 13 24 24 9 9 -11 14 -13 19 -4 4 6 12 9 17 5 5 -3 21 2 34 10 19 12 25
13 25 4 1 -7 9 3 20 22 l19 35 1 -34 c0 -29 2 -32 15 -21 11 9 15 9 15 1 0 -7
5 -9 10 -6 6 3 10 0 11 -7 0 -7 5 -3 11 9 13 26 28 30 28 8 0 -24 29 -17 42
10 15 34 27 31 35 -6 l6 -32 18 24 19 24 1 -35 1 -35 10 29 c7 19 13 24 18 16
6 -9 15 -1 29 26 l20 39 -6 -34 c-4 -25 -3 -32 5 -27 7 4 12 13 12 20 0 7 7
21 16 32 14 18 15 18 8 -6 -10 -37 2 -21 26 35 l21 50 -6 -43 c-4 -29 -1 -50
9 -64 15 -21 15 -20 36 16 26 42 33 46 24 11 -7 -27 7 -33 25 -11 7 8 20 13
29 11 9 -1 23 3 31 9 12 9 13 5 8 -29 -6 -39 -4 -37 15 15 7 20 11 22 18 10 9
-13 10 -13 10 0 0 13 1 13 10 0 13 -20 13 -43 0 -35 -5 3 -10 1 -10 -4 0 -19
28 -12 35 9 9 27 24 25 19 -2 -3 -16 0 -14 10 8 8 17 22 36 30 43 14 12 16 10
16 -8 0 -27 8 -27 37 0 17 17 25 19 36 10 11 -9 17 -8 27 4 7 8 18 14 24 14 6
-1 18 0 26 4 8 3 32 8 54 11 21 3 48 15 59 27 11 12 22 17 26 11 8 -14 32 -17
56 -8 40 15 70 30 86 44 9 7 29 15 45 18 16 3 31 9 32 15 2 5 16 9 32 9 23 0
29 5 34 33 4 17 13 46 20 62 l14 30 -5 -41 c-6 -47 10 -65 29 -34 7 11 20 20
29 20 10 0 22 13 28 32 6 17 14 29 17 25 3 -3 21 5 40 18 19 13 48 26 64 30
16 4 39 18 50 32 14 18 20 21 20 10 0 -11 7 -15 22 -12 12 3 27 0 35 -6 9 -9
17 -8 29 2 9 7 35 14 57 15 23 1 53 6 67 12 19 8 28 7 37 -5 10 -13 14 -10 30
19 10 18 21 42 24 53 5 13 7 3 8 -26 1 -54 19 -68 47 -38 12 13 20 16 24 8 6
-9 63 56 73 85 10 27 17 -6 9 -38 -6 -19 -8 -44 -5 -55 4 -17 7 -18 31 -5 18
9 30 10 38 3 9 -7 16 -4 26 9 7 10 23 21 36 24 17 5 22 2 22 -13 0 -28 28 -35
45 -13 12 16 14 177 15 1062 l0 1042 -1864 0 -1864 0 -7 -22z m365 -102 c0
-20 4 -23 30 -20 18 2 30 -1 30 -8 0 -6 3 -8 7 -5 3 4 13 -2 20 -13 18 -26 48
-12 58 27 7 28 7 28 16 6 9 -24 35 -31 41 -11 5 15 73 -25 82 -49 4 -9 5 -17
4 -17 -2 -1 -14 -9 -28 -18 -22 -14 -27 -14 -39 0 -12 13 -15 12 -25 -6 -6
-11 -13 -20 -16 -19 -10 4 -48 -38 -54 -60 -7 -23 -26 -32 -26 -14 0 6 -19 1
-42 -9 -48 -21 -136 -32 -144 -18 -3 5 -11 4 -19 -2 -9 -7 -16 -6 -25 5 -7 8
-21 15 -32 15 -10 0 -21 7 -25 17 -5 14 -8 12 -17 -8 -10 -24 -10 -23 -14 9
-2 17 -7 32 -13 32 -5 0 -9 6 -9 13 0 8 -9 24 -20 37 -11 13 -20 28 -20 34 0
6 -5 4 -10 -4 -14 -21 -13 5 1 31 12 22 48 18 63 -9 7 -12 10 -12 17 -1 8 11
12 11 23 -4 14 -18 15 -18 36 3 11 11 25 18 31 14 5 -3 30 4 54 15 31 15 45
27 45 41 0 11 5 20 10 20 6 0 10 -11 10 -24z m2419 -268 c6 -13 10 -34 9 -48
-2 -17 2 -25 17 -28 11 -2 23 -9 27 -15 4 -7 11 -2 17 13 l11 25 -2 -25 c-2
-33 12 -81 22 -75 4 2 18 -9 31 -26 15 -20 29 -29 42 -25 15 4 18 0 16 -22 -2
-15 1 -28 6 -29 19 -5 75 19 87 36 12 17 27 24 80 38 37 10 122 3 130 -10 13
-20 9 -54 -8 -67 -8 -7 -14 -23 -13 -34 2 -12 -2 -31 -9 -43 -7 -12 -12 -31
-12 -42 0 -11 -5 -23 -12 -27 -8 -5 -9 0 -6 14 4 12 2 20 -2 17 -5 -3 -12 -20
-16 -38 -6 -29 -7 -30 -15 -10 -6 18 -48 51 -56 45 -12 -8 -33 1 -33 13 0 8
-4 15 -10 15 -5 0 -10 -15 -10 -34 0 -29 -4 -34 -27 -39 -16 -3 -29 -1 -31 3
-2 5 -15 5 -29 -1 -30 -11 -43 -5 -43 24 0 16 -3 18 -9 8 -13 -21 -24 5 -11
28 14 28 13 81 -3 81 -8 0 -18 -24 -26 -60 -8 -33 -17 -60 -21 -60 -11 0 -4
65 10 99 12 30 8 62 -7 60 -15 -2 -53 13 -53 22 0 5 -7 9 -15 9 -8 0 -15 5
-15 11 0 8 -4 8 -13 1 -10 -8 -20 -5 -39 11 -20 17 -24 29 -21 54 4 22 -1 38
-14 52 -14 15 -19 33 -17 59 1 20 2 38 3 40 1 1 18 2 39 2 30 0 41 -5 51 -22z
m-2372 -496 c-58 -60 -55 -134 9 -229 55 -80 132 -125 274 -157 100 -23 284
-33 295 -17 15 25 35 118 41 194 4 43 10 74 14 70 4 -4 18 -36 30 -70 l23 -63
62 0 62 0 23 63 c28 78 40 92 40 46 0 -30 18 -141 36 -221 6 -27 8 -28 81 -28
109 0 246 23 326 55 25 10 22 -6 -24 -130 -76 -208 -103 -270 -126 -292 -42
-43 -44 -34 -41 162 l3 185 -46 0 -47 0 -61 -152 c-75 -188 -76 -190 -90 -157
-24 58 -101 281 -101 293 0 10 -16 15 -47 18 l-48 3 4 -110 c4 -141 -9 -468
-19 -485 -6 -10 -23 0 -67 40 -32 29 -75 64 -95 78 -48 31 -50 43 -46 262 l3
175 65 5 c36 3 74 11 85 17 16 10 -15 12 -162 13 -101 0 -183 -2 -183 -4 0 -2
-2 -10 -5 -18 -4 -10 11 -13 66 -13 l71 0 -2 -185 c0 -101 -2 -185 -3 -186 -1
-1 -22 7 -47 19 -31 15 -50 33 -61 57 -24 50 -149 387 -149 399 0 7 -23 11
-56 11 -47 0 -54 -2 -45 -14 9 -10 0 -43 -40 -145 -28 -72 -58 -140 -68 -152
-15 -18 -20 -19 -44 -8 -26 12 -26 13 -12 36 43 65 22 158 -47 202 l-36 23 33
30 c63 54 67 136 9 170 -22 13 -56 18 -127 19 -53 1 -97 5 -97 8 0 8 145 103
200 131 46 24 188 79 204 80 6 0 -2 -13 -17 -28z m1544 7 c35 -11 103 -41 150
-66 88 -46 258 -165 242 -170 -4 -2 -7 -80 -5 -174 3 -137 1 -170 -10 -167 -7
3 -69 78 -137 169 -109 143 -129 164 -155 167 l-31 3 3 -202 c3 -200 0 -249
-17 -249 -20 0 -165 314 -157 342 2 12 -2 18 -12 18 -10 0 -1 14 25 38 103 96
126 211 56 284 -32 34 -33 33 48 7z m-1741 -254 c29 -27 22 -91 -13 -121 -24
-20 -120 -40 -138 -28 -5 3 -9 44 -9 91 l0 85 69 -4 c51 -3 75 -9 91 -23z
m-221 1 c8 -9 11 -66 9 -182 l-3 -169 -85 -7 c-46 -4 -106 -12 -133 -19 -26
-6 -50 -9 -52 -7 -18 17 61 199 117 270 26 33 32 37 47 26 14 -12 15 -11 2 5
-22 27 6 42 33 19 20 -17 20 -17 4 8 -14 23 -14 26 6 47 24 26 39 29 55 9z
m2479 -111 c51 -68 107 -181 118 -239 l7 -39 -34 7 c-19 3 -39 13 -45 22 -8 9
-13 11 -16 4 -2 -7 -22 -8 -61 -4 l-57 7 0 170 0 170 21 -19 c12 -10 41 -46
67 -79z m-306 -101 l98 -139 -43 -8 c-23 -5 -70 -17 -104 -27 -53 -15 -63 -15
-67 -3 -3 8 -6 84 -6 170 0 119 3 154 13 151 6 -3 56 -67 109 -144z m-338 10
c20 -47 36 -90 36 -95 0 -5 -33 -9 -74 -9 l-74 0 31 95 c18 52 35 95 38 95 4
0 23 -39 43 -86z m-1686 5 c29 -6 59 -20 72 -34 26 -28 37 -93 20 -125 -12
-23 -33 -24 -147 -4 l-33 6 0 84 c0 95 -3 93 88 73z m1331 -221 c-3 -106 -6
-193 -7 -194 -106 -62 -202 -150 -261 -240 -40 -61 -50 -71 -57 -57 -9 22 -14
653 -5 653 4 0 30 -58 59 -128 28 -71 62 -152 75 -181 l23 -52 43 113 c56 144
117 278 128 278 4 0 5 -87 2 -192z m439 9 l32 -73 -20 -41 c-11 -23 -20 -56
-20 -73 l0 -31 -27 19 c-40 28 -117 52 -166 52 -24 0 -51 6 -60 13 -16 11 -15
18 12 99 16 48 32 92 36 98 3 5 45 10 94 10 l87 0 32 -73z m-1314 -41 c16 -46
26 -89 22 -95 -4 -6 -18 -11 -31 -11 -34 0 -115 -28 -147 -52 l-28 -19 0 31
c0 17 -9 49 -21 72 -23 46 -21 93 6 134 14 22 22 24 93 24 l78 0 28 -84z
m-2963 -378 c2 -66 11 -99 22 -81 3 5 5 28 4 51 -3 57 10 54 15 -3 2 -25 -1
-45 -5 -45 -5 0 -5 -4 -2 -10 3 -5 1 -10 -5 -10 -6 0 -8 -5 -5 -10 5 -8 11 -8
19 -1 16 13 26 4 26 -21 0 -11 5 -16 10 -13 9 5 14 -27 13 -72 -1 -7 3 -13 9
-13 5 0 7 -4 3 -9 -3 -5 -1 -12 5 -16 5 -3 10 0 10 7 1 17 39 67 40 51 0 -6
-9 -27 -20 -46 l-20 -34 20 -23 c11 -13 18 -30 15 -38 -3 -7 -5 -23 -5 -34 0
-18 -1 -18 -16 -4 -10 10 -13 24 -9 38 5 18 4 20 -4 8 -8 -12 -11 -12 -11 -1
0 7 -6 11 -15 7 -8 -3 -15 0 -15 6 0 6 -3 8 -6 5 -4 -3 -15 -2 -26 4 -17 9
-19 19 -16 64 2 37 0 51 -9 48 -13 -5 -28 51 -18 67 4 6 2 16 -3 23 -12 15
-23 126 -15 155 9 35 12 23 14 -50z m3000 -627 c-6 -11 -11 -34 -11 -52 0 -49
26 -19 40 44 13 63 30 95 30 57 0 -20 2 -22 10 -10 8 12 10 11 10 -7 0 -14 -6
-23 -15 -23 -8 0 -15 -2 -15 -4 0 -2 -3 -13 -6 -23 -5 -16 -4 -16 10 1 22 27
20 3 -2 -37 -60 -107 -84 -129 -98 -92 -4 10 -10 12 -18 6 -8 -7 -11 11 -11
65 0 40 3 66 6 57 5 -14 7 -13 11 5 4 12 2 22 -3 22 -14 0 -11 20 5 36 13 12
15 12 18 -4 2 -9 0 -32 -5 -50 -8 -32 -2 -60 7 -31 2 8 13 41 23 74 18 59 18
60 21 23 2 -20 -2 -46 -7 -57z m-99 -81 c4 0 5 -7 2 -15 -4 -8 -10 -13 -14
-10 -13 8 -27 -18 -35 -65 -7 -44 9 -49 17 -6 1 11 9 21 15 23 9 3 11 -5 7
-29 l-5 -33 16 25 16 25 -6 -30 c-3 -16 -10 -55 -15 -85 -5 -30 -14 -71 -18
-90 -8 -33 -9 -32 -16 30 -10 89 -15 103 -30 91 -23 -19 -33 3 -31 69 3 69 20
120 41 120 6 0 15 8 19 18 7 14 9 13 18 -10 6 -16 14 -28 19 -28z m-126 -332
c4 -6 6 -32 6 -57 -2 -50 8 -145 14 -138 2 2 11 39 19 83 25 125 26 127 35
118 5 -5 3 -34 -6 -69 -8 -33 -18 -89 -23 -125 -27 -191 -33 -226 -42 -234 -5
-6 -9 -1 -10 15 -1 16 -3 19 -6 7 -2 -10 -8 -18 -13 -18 -5 0 -15 -3 -24 -6
-13 -5 -16 1 -16 29 0 30 -4 35 -27 40 -63 13 -68 12 -68 -5 0 -10 -4 -18 -8
-18 -4 0 -11 0 -15 0 -15 0 -62 119 -62 158 0 51 22 106 37 91 5 -5 40 -9 79
-7 l69 3 7 45 c14 81 36 118 54 88z m2488 -459 c43 0 87 3 97 6 18 6 79 -22
79 -35 0 -4 -12 -13 -26 -21 -36 -19 -628 -19 -647 0 -31 31 60 68 112 45 9
-4 21 -6 26 -5 6 2 50 4 99 6 48 2 91 6 94 9 3 3 24 3 46 0 23 -3 76 -5 120
-5z"/>
</g>
</svg>
